<svg width="41" height="40" viewBox="0 0 41 40" fill="none" xmlns="http://www.w3.org/2000/svg">
<circle cx="20.5" cy="20" r="20" fill="#ACF4C9" style="mix-blend-mode:multiply"/>
<path d="M18.8935 21.6065L28.5 12M18.8935 21.6065L21.9501 27.7198C21.9884 27.8034 22.0499 27.8742 22.1273 27.9239C22.2047 27.9736 22.2948 28 22.3868 28C22.4787 28 22.5688 27.9736 22.6462 27.9239C22.7236 27.8742 22.7851 27.8034 22.8234 27.7198L28.5 12M18.8935 21.6065L12.7802 18.5499C12.6966 18.5116 12.6258 18.4501 12.5761 18.3727C12.5264 18.2953 12.5 18.2052 12.5 18.1132C12.5 18.0213 12.5264 17.9312 12.5761 17.8538C12.6258 17.7764 12.6966 17.7149 12.7802 17.6766L28.5 12" stroke="#040F1F" stroke-width="2" stroke-linecap="round" stroke-linejoin="round"/>
</svg>
